# xmcd CD database file generated by Grip 2.95
# 
# Track frame offsets:
#       150
#       12890
#       32667
#       59339
#       78730
#       95353
#       115820
#       139784
#       163924
#       184418
# 
# Disc length: 2833 seconds
# 
# Revision: 3
# Processed by: cddbd v1.4b42PL1 Copyright (c) Steve Scherf et al.
# Submitted via: Grip 2.95
# 
DISCID=840b0f0a
DTITLE=Daddy Mack Blues Band - Fix It When I Can
DYEAR=1900
DGENRE=
TTITLE0=The Weekend
TTITLE1=Giving You My Money
TTITLE2=I Don't Understand You Baby
TTITLE3=Razor Blade
TTITLE4=If You Don't Want Me
TTITLE5=It's Almost Time To Leave (Stealing Your Love Tonight)
TTITLE6=Daddy Mack Shuffle
TTITLE7=You Left Me One Time
TTITLE8=Get Your Act Together
TTITLE9=The Ghetto
EXTD=
EXTT0=
EXTT1=
EXTT2=
EXTT3=
EXTT4=
EXTT5=
EXTT6=
EXTT7=
EXTT8=
EXTT9=
PLAYORDER=
